<svg xmlns="http://www.w3.org/2000/svg" viewBox="0 0 120 120" fill="none">
  <rect width="120" height="120" rx="20" fill="#1e40af"/>
  <rect x="4" y="4" width="112" height="112" rx="16" fill="#2563eb"/>
  <!-- Water droplet -->
  <path d="M60 20C60 20 35 55 35 72C35 85.8 46.2 97 60 97C73.8 97 85 85.8 85 72C85 55 60 20 60 20Z" fill="#60a5fa" stroke="white" stroke-width="3"/>
  <path d="M60 30C60 30 43 57 43 70C43 79.4 50.6 87 60 87C69.4 87 77 79.4 77 70C77 57 60 30 60 30Z" fill="#93c5fd"/>
  <!-- K&R text -->
  <text x="60" y="78" font-family="Arial, sans-serif" font-size="28" font-weight="bold" fill="white" text-anchor="middle">K&amp;R</text>
</svg>
